<?xml version="1.0" encoding="utf-8"?>
<!-- Generator: Adobe Illustrator 25.1.0, SVG Export Plug-In . SVG Version: 6.00 Build 0)  -->
<svg version="1.1" id="Layer_1" xmlns="http://www.w3.org/2000/svg" xmlns:xlink="http://www.w3.org/1999/xlink" x="0px" y="0px"
	 viewBox="0 0 512 512" style="enable-background:new 0 0 512 512;" xml:space="preserve">
<style type="text/css">
	.st0{fill:#252E63;}
	.st1{fill:#F067A0;}
	.st2{fill:#DE387C;}
	.st3{fill:#DD387C;}
	.st4{fill:#FAA441;}
	.st5{fill:#EE5B96;}
	.st6{fill:#7A8B98;}
	.st7{fill:#FED401;}
	.st8{fill:#9EACBA;}
	.st9{fill:#293064;}
	.st10{fill:#FDF7B6;}
	.st11{fill:#FBEBCD;}
	.st12{fill:#FAD881;}
	.st13{fill:#FAEBCD;}
	.st14{fill:#FFFFFF;stroke:#FFFFFF;stroke-miterlimit:10;}
</style>
<g>
	<g>
		<path class="st0" d="M276.63,506.21c-79.52,5.72-146.39-20.91-200.11-79.56C43.88,391,24.61,348.54,17.79,300.7
			c-5.92-41.56-1.5-82.1,14.02-121.26c10.02,8.7,19.5,8.61,26.16-0.2c3.29-4.36,3.09-9.51,3.28-14.51
			c0.52-13.78,7.81-22.08,21.41-24.98c8.78-1.87,17.86-1,26.53-3.4c27.98-3.92,48.82-23.54,46.58-55.06
			c-0.94-13.28-4.57-23.73-21.28-22.15c21.12-13.15,44.08-21.77,68.24-27.27c38.84-8.85,77.52-7.78,116.02,2.19
			c-3.77,9.98-7.53,19.96-11.3,29.95c-9.47,24.84-18.9,49.69-28.44,74.49c-1.6,4.16-2.87,8.28-2.15,12.78
			c-0.04,29.89-0.06,59.78-0.13,89.66c-0.02,9.47-0.15,18.94-0.23,28.41c-1.85-1.03-3.71-2.04-5.55-3.09
			c-21.22-12.18-42.43-24.36-63.64-36.54c-3.89-3.2-8.42-4.59-13.36-5.35c-26.39-4.08-52.76-8.32-79.13-12.5
			c-16.12-2.49-32.24-4.98-48.36-7.47c-8.35-1.93-15.94,1-20.37,7.86c-4.43,6.86-4.2,15.2,1.12,21.87
			c10.57,13.25,21.36,26.33,32.06,39.48c17.1,21.16,34.26,42.28,51.26,63.53c2.88,3.59,6.34,5.95,10.55,7.45
			c1.07,0.74,2.09,1.56,3.21,2.21c23.61,13.63,47.26,27.2,70.85,40.87c20.61,11.94,41.16,23.99,61.74,35.99
			c-0.05,2.28-0.14,4.56-0.14,6.84C276.7,455.71,276.67,480.96,276.63,506.21z"/>
		<path class="st1" d="M207.31,229.71c21.21,12.18,42.43,24.36,63.64,36.54c1.84,1.05,3.7,2.06,5.55,3.09
			c15,8.77,29.86,17.78,45.22,25.91c14.46,9,29.21,17.5,44.21,25.56c14.45,8.96,29.2,17.41,44.15,25.51
			c19.35,11.18,38.69,22.36,58.04,33.54c-10.72,20.78-24.59,39.25-40.94,55.9c-5.04,5.13-10.24,10.1-15.9,14.56
			c-1.57-1.72-3.63-2.71-5.6-3.84c-13.7-7.89-27.39-15.8-41.08-23.71c-22.02-12.72-44.02-25.47-66.04-38.18
			c-24.42-14.1-48.87-28.14-73.29-42.26c-19.18-11.09-38.33-22.25-57.49-33.39c-0.1-0.26-0.16-0.53-0.18-0.8
			c1.92-1.02,4.04-1.18,6.13-1.59c15.03-2.92,22.45-17.56,16-31.44c-2.47-5.31-1.96-6.2,3.77-6.6
			c12.21-0.84,20.64-10.16,20.62-22.38C214.1,239.6,210.87,234.64,207.31,229.71z"/>
		<path class="st0" d="M468.11,379.85c-19.34-11.18-38.69-22.36-58.04-33.54c0.03-62.44,0.07-124.88,0.09-187.32
			c0-3.1-0.07-6.2-0.11-9.3c0.42-3.15-0.28-6.05-1.42-9.02c-9.81-25.48-19.5-51-29.23-76.51c-0.5-1.64-1-3.29-1.51-4.93
			c25.14,14.35,46.57,33.07,64.78,55.47c29.94,36.81,47.66,78.92,52.63,126.05c5.16,48.85-3.68,95.25-26.87,138.74
			C468.37,379.63,468.22,379.73,468.11,379.85z"/>
		<path class="st2" d="M167.77,308.94c19.16,11.13,38.3,22.29,57.49,33.38c24.41,14.12,48.86,28.16,73.29,42.26
			c22.02,12.71,44.03,25.46,66.04,38.18c13.69,7.91,27.38,15.82,41.08,23.71c1.97,1.14,4.03,2.12,5.6,3.84
			c-12.42,10.7-25.74,20.08-40.39,27.51c-1.6-0.93-3.2-1.86-4.8-2.78c-14.74-8.52-29.49-17.04-44.23-25.55
			c-14.84-8.87-29.73-17.67-44.96-25.86c-20.58-12-41.13-24.05-61.74-35.99c-23.59-13.67-47.24-27.24-70.85-40.87
			c-1.12-0.65-2.14-1.47-3.2-2.2c2.11,0.21,4.21,0.57,6.32,0.58c15.25,0.09,25.48-12.62,22.07-27.36
			C168.8,314.85,166.47,312.25,167.77,308.94z"/>
		<path class="st3" d="M109.2,136.35c-8.68,2.41-17.75,1.54-26.53,3.4c-13.6,2.89-20.89,11.2-21.41,24.98
			c-0.19,5,0.01,10.15-3.28,14.51c-6.66,8.82-16.14,8.9-26.16,0.2c-7.85-17.86,0.22-52.11,28.04-65.04
			c4.85-2.26,9.96-3.95,14.95-5.91c8.96-1.36,17.97-2.22,27.02-2.68c-0.11,1.44-1.26,2.2-2.05,3.2
			C93.06,117.52,97.78,135.1,109.2,136.35z"/>
		<path class="st4" d="M276.89,423.63c15.23,8.19,30.12,16.99,44.96,25.86c0.04,16.08,0.09,32.15,0.14,48.23
			c-11.39,4.09-23.29,5.8-35.18,7.53c-3.37,0.49-6.78,0.65-10.18,0.97c0.04-25.25,0.07-50.5,0.12-75.75
			C276.75,428.18,276.84,425.9,276.89,423.63z"/>
		<path class="st5" d="M109.2,136.35c-11.41-1.25-16.14-18.83-9.43-27.34c0.79-1.01,1.94-1.77,2.05-3.2
			c2.23-0.44,4.48-0.83,6.7-1.34c11.99-2.77,17.69-10.44,15.6-22.48c-1.11-6.39-1.01-12.18,2.13-17.85c2.3-2.41,5.33-3.6,8.24-4.99
			c16.71-1.58,20.34,8.88,21.28,22.15C158.01,112.81,137.18,132.43,109.2,136.35z"/>
		<path class="st6" d="M307.46,64c3.77-9.98,7.53-19.96,11.3-29.94c2.37-5.86,4.6-11.79,7.14-17.57
			c2.53-5.73,6.24-10.48,13.03-11.17c8.23-0.83,16.11-0.31,20.74,8.17c0.38,0.69,0.49,1.53,0.73,2.3
			c-3.7,12.99-7.55,25.94-11.03,38.99c-1.72,6.43-4.4,12.63-4.92,19.36c-0.37,0.28-0.73,0.57-1.1,0.85
			c-3.99-0.55-7.99-1.07-11.98-1.64C322.67,72.1,315.1,67.95,307.46,64z"/>
		<path class="st7" d="M321.99,497.71c-0.05-16.08-0.09-32.15-0.14-48.23c14.74,8.52,29.49,17.04,44.23,25.55
			c-0.04,1.85-0.07,3.7-0.11,5.55C351.88,487.78,337.42,493.99,321.99,497.71z"/>
		<path class="st8" d="M344.45,74.13c0.52-6.74,3.2-12.93,4.92-19.36c3.48-13.05,7.33-26,11.03-38.99
			c5.08,12.87,10.15,25.74,15.26,38.61c0.66,1.65,1.49,3.23,2.25,4.85c0.5,1.64,1,3.29,1.51,4.93c-1.75,0.8-3.55,1.5-5.25,2.41
			C364.88,71.57,355.09,74.51,344.45,74.13z"/>
		<path class="st9" d="M126.25,64.13c-3.14,5.67-3.24,11.46-2.13,17.85c2.09,12.04-3.62,19.71-15.6,22.48
			c-2.22,0.51-4.47,0.9-6.7,1.34c-9.05,0.46-18.06,1.33-27.02,2.68C89.67,91.05,106.75,76.19,126.25,64.13z"/>
		<path class="st10" d="M365.97,480.59c0.04-1.85,0.07-3.7,0.11-5.55c1.6,0.93,3.2,1.86,4.8,2.79
			C369.25,478.75,367.61,479.67,365.97,480.59z"/>
		<path class="st11" d="M207.31,229.71c3.56,4.93,6.79,9.9,6.79,16.42c0.02,12.21-8.41,21.54-20.62,22.38
			c-5.73,0.39-6.24,1.29-3.77,6.6c6.46,13.88-0.96,28.52-16,31.44c-2.08,0.41-4.21,0.57-6.12,1.58c-1.91-0.4-3-1.91-4.25-3.18
			c-16.25-16.57-32.48-33.15-48.71-49.74c-2.5-2.55-4.27-5.82-7.48-7.68c0.05-0.49,0.11-0.98,0.16-1.47
			c6.28-10.58,7.99-22.15,7.49-34.21c26.38,4.18,52.74,8.42,79.13,12.5C198.89,225.12,203.42,226.51,207.31,229.71z"/>
		<path class="st4" d="M321.72,295.25c-15.36-8.13-30.22-17.14-45.22-25.91c0.08-9.47,0.21-18.94,0.23-28.41
			c0.07-29.89,0.09-59.78,0.13-89.66c0.27,0.58,0.63,1.14,0.79,1.75c2.48,9.48,8.67,15.42,18.14,16.97
			c9.55,1.57,17.11-2.46,22.4-10.63c0.83-1.29,1.35-3.14,3.52-2.85C321.71,202.76,321.71,249,321.72,295.25z"/>
		<path class="st12" d="M107.16,247.53c3.21,1.86,4.98,5.12,7.48,7.68c16.22,16.59,32.46,33.17,48.71,49.74
			c1.24,1.27,2.34,2.78,4.25,3.18c0.02,0.28,0.07,0.55,0.17,0.81c-1.3,3.31,1.03,5.92,1.71,8.84c3.41,14.75-6.82,27.46-22.07,27.36
			c-2.1-0.01-4.2-0.37-6.32-0.58c-4.22-1.51-7.68-3.86-10.56-7.45c-17-21.25-34.16-42.37-51.26-63.53
			C91.42,267.95,100.26,258.78,107.16,247.53z"/>
		<path class="st12" d="M321.7,156.51c-2.17-0.29-2.68,1.56-3.52,2.85c-5.29,8.17-12.85,12.2-22.4,10.63
			c-9.47-1.56-15.66-7.49-18.14-16.97c-0.16-0.61-0.52-1.17-0.79-1.75c-0.72-4.51,0.55-8.62,2.15-12.78
			c9.54-24.81,18.97-49.65,28.44-74.49c7.64,3.95,15.21,8.1,23.91,9.35c3.99,0.57,7.99,1.1,11.98,1.64
			c-2.88,10.84-5.74,21.69-8.64,32.53c-4.33,16.2-8.69,32.39-13.03,48.58L321.7,156.51z"/>
		<path class="st2" d="M107.16,247.53c-6.91,11.24-15.74,20.42-27.89,26.05c-10.7-13.15-21.49-26.23-32.06-39.48
			c-5.32-6.67-5.55-15.01-1.12-21.87c4.43-6.86,12.01-9.78,20.37-7.85c0.58,2.33,2.17,3.95,3.8,5.58
			c11.08,11.08,22.13,22.18,33.21,33.26c1.13,1.13,2.07,2.58,3.86,2.85C107.27,246.56,107.22,247.05,107.16,247.53z"/>
		<path class="st5" d="M107.33,246.07c-1.78-0.27-2.72-1.72-3.86-2.85c-11.08-11.08-22.13-22.18-33.21-33.26
			c-1.63-1.63-3.22-3.25-3.8-5.58c16.12,2.49,32.24,4.98,48.36,7.47C115.32,223.91,113.61,235.49,107.33,246.07z"/>
		<path class="st10" d="M410.06,149.69c0.04,3.1,0.11,6.2,0.11,9.3c-0.03,62.44-0.06,124.88-0.09,187.32
			c-14.95-8.1-29.7-16.55-44.15-25.51c0.04-54.76,0.08-109.52,0.11-164.28c2.32,0.35,2.82,2.52,3.89,4.05
			c5.39,7.68,14.53,11.24,23.53,8.73C403.34,166.55,408.18,159.32,410.06,149.69z"/>
		<path class="st7" d="M366.04,156.53c-0.04,54.76-0.08,109.52-0.11,164.28c-15-8.06-29.75-16.56-44.21-25.56
			c0-46.24-0.01-92.49-0.01-138.73c0,0-0.03-0.42-0.03-0.42c1.36,0.71,2.1,1.98,2.91,3.2c9.6,14.43,28.4,14.44,37.97,0.02
			C363.42,158.02,363.86,156.19,366.04,156.53z"/>
		<path class="st13" d="M366.04,156.53c-2.18-0.34-2.62,1.5-3.48,2.79c-9.57,14.41-28.37,14.41-37.97-0.02
			c-0.81-1.22-1.54-2.49-2.91-3.2c4.35-16.19,8.7-32.38,13.03-48.58c2.9-10.84,5.76-21.68,8.64-32.53c0.37-0.28,0.73-0.57,1.1-0.85
			c10.64,0.38,20.43-2.56,29.71-7.55c1.69-0.91,3.5-1.61,5.25-2.41c9.73,25.51,19.42,51.03,29.23,76.5
			c1.14,2.97,1.85,5.87,1.42,9.02c-1.88,9.63-6.72,16.86-16.6,19.61c-9,2.51-18.14-1.06-23.53-8.73
			C368.86,159.05,368.36,156.88,366.04,156.53z"/>
	</g>
	<g>
		<path class="st14" d="M239.81,323.12c-1.74-0.98-4.78-4.27-9.11-9.86l-1.08-1.45c-1.54-2-2.75-3.52-3.63-4.58
			c-0.88-1.06-1.75-2.02-2.62-2.89c-2.49,4.4-4.34,7.43-5.56,9.08c-1.19,1.2-2.11,1.62-2.75,1.26c-0.32-0.18-0.56-0.44-0.73-0.76
			c-0.16-0.33-0.17-0.63-0.01-0.92c0.36-0.64,0.91-1.48,1.63-2.52c1.5-2.15,2.71-4.04,3.63-5.68l1.26-2.24
			c-0.21-0.45-0.35-0.82-0.39-1.1c-0.05-0.29,0-0.55,0.14-0.8c0.18-0.32,0.44-0.56,0.79-0.71c0.35-0.16,0.71-0.28,1.09-0.37
			c0.38-0.09,0.66-0.18,0.85-0.26c0.46-0.73,1.21-2.01,2.25-3.86c2.61-4.61,4.71-9.87,6.31-15.76l0.39-1.19
			c0.28-0.5,0.71-0.77,1.27-0.82c0.57-0.05,1.12,0.07,1.65,0.37c0.39,0.22,0.36,1.21-0.1,2.97c-0.46,1.76-1.23,3.89-2.31,6.39
			c-1.09,2.5-2.3,4.94-3.65,7.32l-2.02,3.57c0.8-0.25,2.61-0.84,5.43-1.78c2.82-0.93,5.61-1.89,8.36-2.86
			c4.67-1.72,8.5-3.44,11.49-5.17c0.79-0.49,1.79-1.14,3-1.96c1.15-0.8,1.8-1.16,1.95-1.08c0.39,0.22,0.34,0.76-0.14,1.61
			c-0.58,1.03-1.3,1.92-2.15,2.68c-0.85,0.76-1.88,1.5-3.08,2.23c-1.98,1.18-4.09,2.24-6.34,3.2c-2.25,0.95-4.97,1.93-8.16,2.94
			c-1.19,0.36-2.23,0.66-3.11,0.91c-0.89,0.25-1.68,0.48-2.36,0.7c-2.89,0.8-5.24,1.51-7.04,2.13c0.36,0.44,1.21,1.44,2.56,2.99
			c1.34,1.56,3.11,3.56,5.28,6.01c1.54,1.76,2.83,3.2,3.87,4.33c1.05,1.13,1.94,2.12,2.68,2.96c0.17,0.19,0.38,0.41,0.61,0.66
			c0.23,0.25,0.48,0.52,0.74,0.81c0.99,1.07,1.35,1.84,1.09,2.3c-0.26,0.46-0.6,0.81-1.01,1.04
			C240.38,323.21,240.05,323.26,239.81,323.12z"/>
		<path class="st14" d="M243.56,330.65c-0.48-0.32-0.39-1.32,0.26-3.01c0.65-1.69,2.09-4.79,4.31-9.3c1.48-2.96,2.95-5.84,4.4-8.65
			c1.45-2.81,2.58-4.97,3.38-6.48c0.22-0.39,0.45-0.65,0.68-0.77c0.23-0.12,0.53-0.09,0.88,0.11c0.82,0.46,1.14,1.09,0.97,1.88
			c-0.17,0.8-0.79,2.15-1.88,4.07l-3.61,6.25c-2.03,3.59-3.55,6.52-4.56,8.81c-0.06,0.11-0.54,1.33-1.45,3.68
			c-0.6,1.63-1.03,2.7-1.31,3.19c-0.2,0.35-0.51,0.54-0.92,0.57C244.32,331.02,243.93,330.9,243.56,330.65z M261.04,295.99
			c-0.61-0.34-1.08-0.94-1.42-1.78c-0.34-0.85-0.42-1.43-0.24-1.75c0.22-0.39,0.62-0.66,1.19-0.8c0.57-0.14,1.05-0.11,1.45,0.11
			c0.43,0.48,0.71,1.01,0.85,1.6c0.12,0.45,0.23,1,0.33,1.66c0.09,0.66,0.11,1.05,0.05,1.15
			C262.95,296.71,262.22,296.65,261.04,295.99z"/>
		<path class="st14" d="M292.15,308.45c-0.4,0.71-1.22,2.08-2.47,4.12c-1.25,2.04-2.46,4.1-3.64,6.2
			c-2.29,4.05-4.53,8.22-6.73,12.53c-2.2,4.31-3.62,7.15-4.25,8.52c-0.12,0.21-0.23,0.45-0.34,0.72c-0.11,0.27-0.2,0.52-0.29,0.75
			c-0.42,1.08-0.69,1.72-0.81,1.93c-0.2,0.36-0.65,0.55-1.34,0.58c-0.7,0.03-1.18-0.04-1.47-0.2c-0.39-0.22-0.56-0.52-0.52-0.89
			c0.05-0.37,0.22-0.82,0.52-1.36c1.1-1.95,2.31-3.96,3.62-6.03l1.74-2.95c0.56-0.99,1.28-2.31,2.16-3.94
			c0.88-1.64,1.59-3.02,2.14-4.16c-5.1,4.8-9.88,8.46-14.32,10.98c-4.45,2.52-8,3.03-10.66,1.52c-1.21-0.68-1.91-1.83-2.1-3.43
			c-0.19-1.61,0.31-3.48,1.52-5.61c1.59-2.8,4.26-5.32,8.03-7.55c3.77-2.23,7.54-3.84,11.31-4.85c3.77-1,6.25-1.17,7.42-0.51
			c1.14,0.64,1.49,1.34,1.07,2.08c-0.28,0.5-0.78,0.98-1.48,1.44c-0.71,0.47-1.42,0.85-2.13,1.15c-0.71,0.3-1.1,0.43-1.17,0.39
			c-0.07-0.04-0.14-0.11-0.19-0.22c-0.06-0.1-0.07-0.19-0.03-0.26c0.1-0.18,0.36-0.43,0.78-0.76c0.42-0.33,0.67-0.56,0.75-0.7
			c0.1-0.18,0.15-0.31,0.16-0.4c0-0.09-0.08-0.19-0.26-0.29c-0.75-0.42-2.66-0.16-5.75,0.79c-3.09,0.95-6.19,2.39-9.3,4.33
			c-3.11,1.94-5.35,4.12-6.71,6.53c-0.48,0.85-0.76,1.75-0.82,2.7c-0.07,0.95,0.31,1.65,1.13,2.11c2.59,1.46,6.23,0.63,10.93-2.5
			c4.7-3.13,9.44-7.02,14.22-11.67l2.42-4.53c2.12-4,3.25-6.12,3.39-6.37c1.2-2.13,2.16-3.61,2.86-4.43
			c0.27-0.31,0.49-0.52,0.66-0.61c0.17-0.09,0.39-0.06,0.68,0.1c0.35,0.2,0.64,0.52,0.87,0.95c0.22,0.43,0.23,0.84,0.01,1.23
			L292.15,308.45z"/>
		<path class="st14" d="M292.04,325.17c-0.36-0.2-0.59-0.46-0.71-0.79c-0.12-0.32-0.09-0.65,0.09-0.97c0.12-0.21,0.61-0.6,1.47-1.17
			c0.86-0.57,1.39-0.91,1.6-1.03l3.12-2.03l2.34-1.91c0.99-0.84,1.76-1.45,2.3-1.83c0.54-0.37,0.93-0.49,1.18-0.35
			c0.39,0.22,0.68,0.68,0.87,1.37c0.19,0.69,0.18,1.24-0.04,1.63c-0.3,0.53-1.37,1.45-3.21,2.75c-1.84,1.3-3.67,2.42-5.51,3.35
			C293.7,325.13,292.54,325.45,292.04,325.17z"/>
		<path class="st14" d="M294.92,360.46c-1.53-0.86-2.48-1.59-2.85-2.17c-0.37-0.59-0.42-1.13-0.14-1.62
			c0.18-0.32,0.9-0.65,2.17-0.99c1.27-0.34,2.04-0.43,2.33-0.26c0.43,0.24,0.59,0.45,0.49,0.63c-0.08,0.14-0.25,0.23-0.51,0.28
			c-0.26,0.04-0.42,0.12-0.48,0.22c-0.08,0.14,0.06,0.41,0.43,0.8c0.36,0.39,0.86,0.77,1.5,1.13c1.49,0.84,3.15,1.42,4.97,1.72
			c1.82,0.3,3.46,0.28,4.92-0.06c1.46-0.34,2.47-1.02,3.03-2.01c0.54-0.96,0.67-1.89,0.39-2.8c-0.28-0.91-0.8-1.75-1.55-2.53
			c-0.75-0.78-2.06-2.02-3.91-3.72c-2.04-1.86-3.59-3.36-4.66-4.5s-1.81-2.24-2.24-3.31c-0.43-1.06-0.37-2.07,0.17-3.03
			c0.96-1.7,2.68-2.79,5.15-3.27c2.47-0.48,5.02-0.51,7.65-0.1c2.63,0.41,4.53,0.94,5.7,1.61c1.21,0.68,1.61,1.38,1.21,2.09
			c-0.24,0.43-0.65,0.82-1.22,1.17c-0.58,0.35-1.15,0.37-1.71,0.05c-0.21-0.12-0.4-0.33-0.56-0.63c-0.16-0.3-0.36-0.52-0.61-0.66
			c-0.71-0.4-1.96-0.8-3.75-1.2c-1.79-0.4-3.56-0.49-5.33-0.27c-1.76,0.22-3.02,0.99-3.76,2.3c-0.48,0.85-0.35,1.76,0.39,2.72
			c0.74,0.96,2.28,2.5,4.6,4.6c0.26,0.29,0.53,0.55,0.82,0.78c0.29,0.23,0.54,0.46,0.75,0.67c2.37,2.18,4.05,4.1,5.05,5.74
			c0.99,1.64,1.03,3.28,0.11,4.91c-0.88,1.56-2.36,2.7-4.43,3.43c-2.07,0.72-4.39,0.94-6.93,0.65
			C299.55,362.5,297.16,361.73,294.92,360.46z"/>
		<path class="st14" d="M353.76,370.11c-1.38-0.13-2.76-0.3-4.14-0.51c-1.38-0.22-2.27-0.37-2.69-0.47c-2.27,4.43-4.27,8.17-6,11.22
			c-0.56,0.99-0.9,1.87-1.02,2.62c-0.12,0.75-0.23,1.21-0.33,1.39c-0.22,0.39-0.6,0.61-1.14,0.65c-0.54,0.05-1.02-0.05-1.45-0.29
			c-0.53-0.3-0.66-0.87-0.38-1.69c0.04-0.07,0.18-0.42,0.41-1.03c0.23-0.62,0.64-1.44,1.22-2.47c1.57-2.77,4.03-7.37,7.39-13.81
			c1.7-3.26,2.93-5.56,3.69-6.91c0.64-1.14,1.26-2.18,1.84-3.14c0.59-0.96,0.98-1.61,1.18-1.97c-2.58-0.66-4.86-1.13-6.86-1.42
			c-0.67-0.05-1.65-0.07-2.93-0.04c-0.57,0.01-1.11,0-1.64-0.01c-0.53-0.02-0.9-0.09-1.11-0.21c-0.28-0.16-0.46-0.43-0.53-0.79
			c-0.07-0.37-0.01-0.73,0.19-1.09c0.26-0.46,1.26-0.66,3-0.59c1.74,0.07,3.76,0.33,6.05,0.79c2.3,0.45,4.35,0.98,6.16,1.59
			c2.12,0.73,4.35,1.75,6.69,3.08c3.23,1.83,5.53,3.68,6.91,5.56c1.37,1.88,1.59,3.65,0.65,5.32c-1.18,2.09-3.05,3.41-5.61,3.96
			C360.76,370.41,357.57,370.49,353.76,370.11z M360.17,357.16c-1.63-0.92-3.36-1.76-5.19-2.51c-0.2,0.26-0.61,0.89-1.25,1.89
			c-0.64,1-1.21,1.96-1.74,2.88l-2.15,3.92c-0.45,0.87-1.04,1.97-1.78,3.28c0.79,0.35,2.66,0.71,5.64,1.08
			c2.92,0.29,5.54,0.26,7.85-0.09c2.31-0.36,3.87-1.25,4.67-2.67c0.68-1.21,0.4-2.49-0.84-3.85
			C364.14,359.73,362.4,358.42,360.17,357.16z"/>
		<path class="st14" d="M386.39,392.92c-0.36,0.64-1.63,1.77-3.79,3.41c-2.16,1.63-4.72,2.84-7.66,3.61
			c-2.94,0.77-5.8,0.38-8.57-1.19c-2.27-1.29-3.77-3.07-4.49-5.35c-0.72-2.28-0.25-4.9,1.41-7.84c1.57-2.77,3.75-5.15,6.57-7.14
			c2.81-1.99,5.73-3.27,8.77-3.82c3.03-0.56,5.65-0.21,7.85,1.03c1.31,0.74,2.26,1.66,2.83,2.76c0.57,1.1,0.55,2.2-0.07,3.3
			c-0.7,1.24-2.09,2.05-4.15,2.43c-2.07,0.38-4.47,0.38-7.2,0c-2.74-0.38-5.41-1.04-8-2c-1.35,1.39-2.47,2.87-3.35,4.43
			c-1.16,2.06-1.58,3.93-1.24,5.62c0.33,1.69,1.41,3.04,3.22,4.07c2.73,1.54,5.5,1.82,8.31,0.83c2.81-0.99,5.47-2.39,7.99-4.19
			c0.15-0.1,0.43-0.31,0.84-0.61c0.41-0.31,0.68-0.42,0.82-0.34C386.72,392.05,386.69,392.39,386.39,392.92z M384.61,377.44
			c-1.35-0.76-2.9-1.05-4.64-0.87c-1.74,0.18-3.39,0.66-4.92,1.43c-1.54,0.77-2.7,1.57-3.49,2.38c1.73,0.75,3.71,1.26,5.95,1.54
			c2.23,0.28,4.21,0.32,5.94,0.13c1.73-0.19,2.75-0.58,3.07-1.15c0.32-0.57,0.28-1.18-0.13-1.83
			C385.98,378.42,385.39,377.88,384.61,377.44z"/>
		<path class="st14" d="M398.74,419.29c-0.36-0.2-0.61-0.45-0.77-0.75c-0.16-0.3-0.16-0.59,0-0.88c0.82-1.45,2.2-3.65,4.14-6.58
			c2.06-3.15,3.7-5.8,4.92-7.97c1.18-2.09,2.09-3.84,2.72-5.24c0.63-1.4,0.71-2.23,0.25-2.49c-1.21-0.68-3.38,0.07-6.51,2.26
			c-3.13,2.19-7.01,5.21-11.62,9.06l-2,1.68c-0.34,0.27-0.74,0.42-1.2,0.45c-0.46,0.02-0.86-0.07-1.22-0.27
			c-0.43-0.24-0.69-0.44-0.79-0.59c-0.1-0.15-0.07-0.41,0.1-0.79l2.04-4.61l3.54-8.12c1.48-3.19,2.68-6.03,3.61-8.5
			c0.19-0.59,0.37-1.03,0.53-1.31c0.3-0.53,0.78-0.84,1.43-0.91c0.65-0.08,1.28,0.05,1.88,0.4c0.35,0.2,0.13,1.2-0.67,2.99
			c-0.8,1.79-2.19,4.64-4.16,8.54l-1.38,2.94c-1.74,3.75-2.87,6.11-3.37,7.09c0.23-0.15,0.46-0.34,0.7-0.55
			c0.24-0.22,0.52-0.44,0.84-0.68c4.73-3.89,8.87-7.01,12.43-9.38c3.56-2.37,6.12-3.11,7.69-2.22c1.1,0.62,1.33,1.98,0.68,4.07
			c-0.65,2.09-1.74,4.63-3.28,7.6c-1.72,3.29-4.34,8.04-7.85,14.25c-0.24,0.43-0.62,0.69-1.15,0.79S399.24,419.58,398.74,419.29z"/>
	</g>
</g>
</svg>
